<svg width="1280" height="729" viewBox="0 0 1280 729" fill="none" xmlns="http://www.w3.org/2000/svg">
<path d="M1387.28 0.564945C1334.79 62.6071 1279.13 120.267 1217.63 164.881C1197.68 179.346 1177.01 192.49 1154.81 199.79C1109.56 214.676 1060.94 204.519 1013.89 207.604C954.135 211.518 896.462 237.715 848.003 282.006C811.541 315.334 771.54 362.262 727.882 377.728C688.221 391.778 638.781 344.439 600.531 328.049C561.354 311.264 519.582 311.357 481.756 326.354C461.941 334.212 443.134 346.164 426.313 361.976C410.229 377.099 397.634 403.341 374.773 386.312C367.217 380.682 361.405 371.368 354.634 363.975C331.103 338.288 295.015 340.038 275.589 367.813" stroke="#2EA7E0" stroke-opacity="0.7" stroke-width="0.552088" stroke-miterlimit="10"/>
<path d="M1384.89 2.59161C1333.81 65.2364 1278.84 123.364 1217.68 167.802C1197.31 182.62 1176.14 195.489 1153.61 203.39C1126.42 212.872 1097.98 213.584 1069.35 213.3C1049.8 213.108 1030.16 212.449 1010.76 213.791C972.427 216.447 934.847 227.28 899.848 245.251C879.383 255.759 859.806 268.715 841.464 283.971C828.573 294.642 815.287 306.824 801.601 318.767C782.347 335.522 762.293 351.793 741.35 363.101C733.833 367.174 726.204 370.606 718.47 373.16C686.498 383.687 648.646 358.115 615.121 339.925C606.13 335.021 597.452 330.648 589.272 327.642C555.639 315.144 520.417 314.947 487.502 325.61C481.835 327.444 476.234 329.601 470.716 332.075C451.038 340.891 432.341 353.698 415.412 370.008C405.386 379.669 396.602 393.376 385.867 398.58C379.258 401.785 371.937 401.718 363.138 395.601C355.45 390.256 349.412 381.356 342.451 374.262C318.286 349.596 281.889 351.181 261.791 378.701" stroke="#2EA7E0" stroke-opacity="0.7" stroke-width="0.552088" stroke-miterlimit="10"/>
<path d="M1382.5 4.61355C1332.83 67.8646 1278.54 126.455 1217.73 170.718C1196.94 185.893 1175.27 198.486 1152.4 206.982C1124.92 217.096 1096.13 218.522 1067.11 218.758C1047.28 218.921 1027.34 218.53 1007.62 219.97C968.667 222.806 930.387 233.132 894.645 249.912C873.748 259.721 853.728 271.756 834.92 285.927C821.668 295.819 808.044 307.124 794.04 318.168C774.317 333.648 753.821 348.6 732.397 359.135C724.722 362.935 716.939 366.161 709.049 368.585C676.366 378.567 637.995 354.485 604.091 338.097C595.018 333.663 586.258 329.807 578.007 327.238C544.147 316.7 509.027 318.205 476.336 330.505C470.71 332.616 465.151 335.055 459.67 337.795C440.128 347.57 421.541 361.232 404.506 378.043C394.413 388.006 385.463 401.795 374.541 407.218C367.81 410.56 360.382 410.636 351.498 404.894C343.672 399.834 337.414 391.351 330.263 384.552C305.467 360.908 268.756 362.329 247.99 389.589" stroke="#2EA7E0" stroke-opacity="0.7" stroke-width="0.552088" stroke-miterlimit="10"/>
<path d="M1380.12 6.63571C1331.86 70.4865 1278.26 129.546 1217.79 173.627C1196.58 189.154 1174.42 201.472 1151.21 210.568C1123.43 221.319 1094.3 223.455 1064.88 224.211C1044.78 224.735 1024.55 224.611 1004.5 226.142C964.925 229.161 925.942 238.976 889.459 254.561C868.127 263.675 847.695 274.86 828.39 287.869C814.796 297.032 800.811 307.407 786.497 317.555C766.301 331.759 745.368 345.391 723.463 355.148C715.632 358.675 707.69 361.696 699.649 363.994C666.254 373.43 627.343 350.961 593.079 336.251C583.917 332.315 575.086 328.928 566.758 326.813C532.685 318.159 497.649 321.443 465.187 335.383C459.601 337.777 454.083 340.489 448.643 343.498C429.239 354.233 410.762 368.749 393.621 386.06C383.461 396.324 374.349 410.194 363.236 415.838C356.383 419.32 348.848 419.543 339.875 414.164C331.913 409.394 325.434 401.32 318.091 394.817C292.661 372.197 255.641 373.449 234.202 400.456" stroke="#2EA7E0" stroke-opacity="0.7" stroke-width="0.552088" stroke-miterlimit="10"/>
<path d="M1377.74 8.6621C1330.89 73.1125 1277.98 132.636 1217.86 176.544C1196.22 192.428 1173.58 204.531 1150.02 214.159C1121.97 225.62 1092.47 228.392 1062.65 229.673C1042.28 230.553 1021.75 230.699 1001.39 232.325C961.182 235.529 921.498 244.836 884.272 259.227C862.507 267.641 841.636 277.928 821.862 289.828C807.908 298.227 793.584 307.705 778.952 316.962C758.288 329.889 736.911 342.203 714.525 351.182C706.537 354.436 698.438 357.252 690.246 359.419C656.14 368.309 616.707 347.369 582.063 334.421C572.816 330.964 563.912 328.066 555.508 326.405C521.228 319.633 486.274 324.697 454.035 340.274C448.487 342.946 443.01 345.935 437.611 349.215C418.345 360.908 399.975 376.278 382.729 394.085C372.501 404.651 363.226 418.599 351.924 424.466C344.949 428.089 337.304 428.459 328.248 423.447C320.146 418.966 313.449 411.306 305.916 405.098C279.852 383.502 242.519 384.589 220.413 411.336" stroke="#2EA7E0" stroke-opacity="0.7" stroke-width="0.552088" stroke-miterlimit="10"/>
<path d="M1375.36 10.6835C1329.93 75.7373 1277.7 135.726 1217.92 179.452C1195.86 195.688 1172.73 207.532 1148.83 217.742C1120.49 229.851 1090.64 233.321 1060.42 235.122C1039.78 236.362 1018.94 236.776 998.263 238.493C957.438 241.88 917.053 250.675 879.084 263.876C856.884 271.594 835.575 280.976 815.332 291.77C801.022 299.402 786.372 308.041 771.406 316.348C750.294 328.073 728.439 338.917 705.589 347.196C697.436 350.149 689.19 352.787 680.841 354.824C646.022 363.168 606.072 343.752 571.046 332.575C561.716 329.596 552.734 327.188 544.253 325.98C509.768 321.079 474.894 327.935 442.879 345.153C437.373 348.106 431.937 351.369 426.573 354.919C407.446 367.574 389.183 383.8 371.83 402.103C361.536 412.971 352.095 427 340.606 433.086C333.509 436.849 325.754 437.366 316.615 432.721C308.373 428.53 301.458 421.284 293.735 415.371C267.039 394.798 229.394 395.721 206.615 422.212" stroke="#2EA7E0" stroke-opacity="0.7" stroke-width="0.552088" stroke-miterlimit="10"/>
<path d="M1372.98 12.7097C1328.96 78.363 1277.42 138.816 1217.99 182.365C1195.51 198.957 1171.88 210.533 1147.63 221.333C1119 234.089 1088.8 238.254 1058.19 240.579C1037.27 242.176 1016.14 242.861 995.145 244.672C953.694 248.243 912.609 256.531 873.896 268.534C851.263 275.552 829.511 284.032 808.803 293.721C794.132 300.585 779.144 308.339 763.863 315.743C742.28 326.204 719.982 335.705 696.652 343.218C688.344 345.894 679.939 348.335 671.438 350.237C635.91 358.035 595.442 340.143 560.031 330.733C550.619 328.233 541.564 326.309 533.002 325.563C498.314 322.534 463.517 331.181 431.725 350.035C426.258 353.267 420.864 356.808 415.54 360.623C396.551 374.237 378.398 391.317 360.937 410.121C350.575 421.29 340.972 435.4 329.292 441.705C322.076 445.609 314.204 446.278 304.985 441.996C296.6 438.099 289.469 431.258 281.558 425.64C254.228 406.091 216.271 406.846 192.825 433.083" stroke="#2EA7E0" stroke-opacity="0.7" stroke-width="0.552088" stroke-miterlimit="10"/>
<path d="M1370.59 14.7317C1327.99 80.9848 1277.14 141.902 1218.05 185.274C1195.14 202.219 1171.02 213.526 1146.44 224.916C1117.52 238.316 1086.96 243.183 1055.96 246.029C1034.76 247.985 1013.34 248.938 992.019 250.84C949.946 254.594 908.157 262.372 868.705 273.183C845.639 279.506 823.443 287.081 802.267 295.664C787.234 301.762 771.907 308.63 756.312 315.135C734.257 324.328 711.52 332.49 687.709 339.237C679.246 341.636 670.682 343.875 662.027 345.648C625.786 352.9 584.806 336.526 549.011 328.889C539.516 326.862 530.385 325.428 521.744 325.14C486.856 323.972 452.131 334.42 420.566 354.915C415.137 358.424 409.785 362.247 404.501 366.328C385.651 380.9 367.604 398.835 350.037 418.135C339.608 429.605 329.84 443.797 317.973 450.322C310.635 454.362 302.649 455.191 293.35 451.263C284.821 447.66 277.477 441.228 269.375 435.905C241.413 417.376 203.145 417.97 179.025 443.948" stroke="#2EA7E0" stroke-opacity="0.7" stroke-width="0.552088" stroke-miterlimit="10"/>
<path d="M1368.22 16.753C1327.02 83.6096 1276.86 144.991 1218.12 188.186C1194.79 205.487 1170.18 216.522 1145.25 228.506C1116.04 242.546 1085.13 248.12 1053.73 251.49C1032.27 253.802 1010.54 255.025 988.902 257.022C946.203 260.961 903.713 268.227 863.518 277.848C840.017 283.471 817.377 290.137 795.739 297.623C780.342 302.949 764.68 308.936 748.77 314.537C726.244 322.466 703.067 329.29 678.774 335.267C670.152 337.389 661.435 339.427 652.626 341.069C615.674 347.775 574.182 332.917 537.997 327.055C528.419 325.502 519.216 324.557 510.496 324.727C475.406 325.414 440.758 337.67 409.419 359.805C404.032 363.595 398.721 367.691 393.472 372.043C374.76 387.574 356.821 406.363 339.148 426.163C328.652 437.935 318.721 452.204 306.664 458.953C299.204 463.134 291.101 464.122 281.727 460.548C273.052 457.244 265.496 451.213 257.203 446.189C228.607 428.683 190.027 429.113 165.24 454.834" stroke="#2EA7E0" stroke-opacity="0.7" stroke-width="0.552088" stroke-miterlimit="10"/>
<path d="M1365.84 18.7793C1326.05 86.2354 1276.58 148.082 1218.18 191.099C1194.43 208.753 1169.32 219.52 1144.05 232.094C1114.55 246.774 1083.29 253.054 1051.5 256.944C1029.76 259.616 1007.73 261.103 985.777 263.194C942.455 267.316 899.263 274.075 858.326 282.498C834.393 287.426 811.309 293.182 789.207 299.57C773.446 304.125 757.446 309.232 741.221 313.929C718.224 320.59 694.608 326.079 669.831 331.286C661.054 333.132 652.178 334.968 643.215 336.48C605.55 342.641 563.545 329.293 526.974 325.215C517.316 324.136 508.034 323.676 499.236 324.308C463.95 326.845 429.372 340.913 398.257 364.685C392.908 368.753 387.639 373.127 382.431 377.749C363.857 394.238 346.028 413.885 328.246 434.182C317.686 446.255 307.587 460.606 295.342 467.573C287.76 471.895 279.541 473.043 270.088 469.824C261.266 466.818 253.499 461.192 245.015 456.459C215.788 439.977 176.892 440.239 151.435 465.703" stroke="#2EA7E0" stroke-opacity="0.7" stroke-width="0.552088" stroke-miterlimit="10"/>
<path d="M1363.46 20.8014C1325.09 88.8571 1276.3 151.172 1218.25 194.008C1194.07 212.018 1168.47 222.513 1142.86 235.681C1113.07 251.001 1081.46 257.987 1049.27 262.398C1027.25 265.426 1004.93 267.184 982.655 269.37C938.709 273.676 894.816 279.924 853.136 287.156C828.767 291.384 805.239 296.228 782.675 301.522C766.551 305.302 750.212 309.531 733.673 313.33C710.201 318.719 686.15 322.877 660.893 327.318C651.96 328.886 642.925 330.522 633.811 331.903C595.436 337.517 552.921 325.677 515.957 323.382C506.217 322.778 496.862 322.803 487.983 323.897C452.499 328.275 417.994 344.164 387.101 369.576C381.792 373.927 376.564 378.574 371.397 383.465C352.961 400.913 335.239 421.414 317.354 442.208C306.726 454.582 296.465 469.014 284.03 476.201C276.326 480.663 267.99 481.976 258.461 479.107C249.492 476.402 241.508 471.198 232.84 466.74C202.96 451.367 163.774 451.379 137.644 476.586" stroke="#2EA7E0" stroke-opacity="0.7" stroke-width="0.552088" stroke-miterlimit="10"/>
<path d="M1361.08 22.8232C1324.11 91.4826 1276.02 154.258 1218.31 196.916C1193.71 215.279 1167.62 225.503 1141.67 239.264C1111.58 255.22 1079.63 262.916 1047.04 267.847C1024.75 271.235 1002.13 273.26 979.533 275.537C934.964 280.027 890.367 285.763 847.948 291.806C823.146 295.338 799.167 299.265 776.145 303.465C759.657 306.47 742.98 309.819 726.129 312.717C702.185 316.835 677.696 319.666 651.956 323.333C642.864 324.629 633.676 326.058 624.405 327.31C585.317 332.378 542.291 322.041 504.939 321.534C495.118 321.399 485.687 321.91 476.728 323.473C441.046 329.686 406.61 347.403 375.944 374.451C370.677 379.079 365.491 384.008 360.361 389.166C342.063 407.572 324.448 428.928 306.457 450.221C295.763 462.897 285.335 477.407 272.713 484.817C264.891 489.42 256.433 490.9 246.83 488.373C237.711 485.976 229.519 481.167 220.66 477.001C190.148 462.651 150.648 462.499 123.85 487.45" stroke="#2EA7E0" stroke-opacity="0.7" stroke-width="0.552088" stroke-miterlimit="10"/>
<path d="M1358.69 24.8495C1323.15 94.1084 1275.74 157.352 1218.37 199.834C1193.35 218.552 1166.77 228.5 1140.48 242.859C1110.1 259.451 1077.79 267.853 1044.81 273.309C1022.24 277.053 999.328 279.349 976.413 281.721C931.218 286.394 885.921 291.623 842.758 296.471C817.521 299.304 793.098 302.318 769.612 305.424C752.76 307.655 735.745 310.123 718.579 312.122C694.16 314.968 669.236 316.471 643.015 319.365C633.767 320.383 624.42 321.612 614.999 322.737C575.2 327.26 531.663 318.421 493.923 319.709C484.022 320.045 474.516 321.04 465.478 323.069C429.598 331.112 395.235 350.661 364.793 379.35C359.565 384.26 354.42 389.463 349.327 394.89C331.168 414.259 313.663 436.465 295.564 458.259C284.802 471.236 274.212 485.827 261.4 493.457C253.455 498.196 244.876 499.849 235.199 497.668C225.934 495.58 217.531 491.165 208.481 487.294C177.338 473.971 137.525 473.647 110.055 498.341" stroke="#2EA7E0" stroke-opacity="0.7" stroke-width="0.552088" stroke-miterlimit="10"/>
<path d="M1356.32 26.871C1322.18 96.7294 1275.39 160.275 1218.44 202.742C1192.96 221.741 1165.91 231.486 1139.29 246.442C1108.62 263.666 1075.96 272.782 1042.58 278.761C1019.74 282.866 996.527 285.429 973.293 287.892C927.476 292.749 881.479 297.467 837.572 301.12C811.903 303.258 787.031 305.347 763.084 307.367C745.868 308.819 728.515 310.406 711.038 311.513C686.144 313.088 660.788 313.264 634.08 315.384C624.678 316.129 615.171 317.153 605.596 318.148C565.084 322.125 521.038 314.781 482.908 317.865C472.926 318.67 463.344 320.151 454.225 322.646C418.147 332.515 383.858 353.9 353.641 384.225C348.452 389.413 343.348 394.893 338.297 400.59C320.276 420.917 302.877 443.977 284.672 466.268C273.843 479.546 263.088 494.219 250.088 502.068C242.022 506.948 233.325 508.772 223.573 506.933C214.159 505.157 205.547 501.134 196.309 497.557C164.535 485.262 124.407 484.77 96.2696 509.207" stroke="#2EA7E0" stroke-opacity="0.7" stroke-width="0.552088" stroke-miterlimit="10"/>
<path d="M1353.93 28.8933C1321.21 99.3552 1275.11 163.361 1218.5 205.651C1192.6 225.003 1165.06 234.472 1138.09 250.026C1107.13 267.882 1074.12 277.711 1040.35 284.211C1017.24 288.672 993.723 291.506 970.169 294.063C923.727 299.101 877.029 303.315 832.379 305.775C806.274 307.213 780.954 308.382 756.55 309.315C738.966 309.985 721.278 310.698 703.487 310.906C678.118 311.206 652.327 310.062 625.135 311.405C615.574 311.878 605.915 312.699 596.185 313.56C554.963 316.991 510.405 311.143 471.884 316.022C461.82 317.297 452.164 319.263 442.965 322.224C406.684 333.911 372.472 357.14 342.479 389.105C337.331 394.571 332.269 400.328 327.256 406.295C309.373 427.581 292.082 451.5 273.771 474.287C262.874 487.862 251.957 502.617 238.767 510.689C230.579 515.709 221.761 517.71 211.937 516.209C202.372 514.747 193.556 511.108 184.125 507.827C151.719 496.555 111.279 495.898 82.4682 520.076" stroke="#2EA7E0" stroke-opacity="0.7" stroke-width="0.552088" stroke-miterlimit="10"/>
<path d="M1351.56 30.9187C1320.24 101.98 1274.83 166.455 1218.57 208.563C1192.25 228.267 1164.21 237.461 1136.9 253.616C1105.64 272.105 1072.29 282.648 1038.13 289.668C1014.74 294.488 990.926 297.59 967.054 300.238C919.988 305.458 872.587 309.162 827.194 310.432C800.657 311.174 774.888 311.419 750.023 311.266C732.075 311.157 714.049 310.989 695.944 310.302C670.102 309.322 643.874 306.863 616.201 307.428C606.485 307.628 596.666 308.244 586.785 308.975C544.85 311.86 499.783 307.498 460.872 314.181C450.727 315.922 440.996 318.373 431.716 321.808C395.236 335.31 361.095 360.386 331.329 393.992C326.22 399.739 321.2 405.774 316.226 412.007C298.482 434.251 281.3 459.024 262.881 482.311C251.917 496.188 240.837 511.024 227.457 519.316C219.148 524.476 210.209 526.657 200.311 525.49C190.597 524.343 181.571 521.093 171.95 518.107C138.913 507.858 98.1573 507.033 68.6796 530.958" stroke="#2EA7E0" stroke-opacity="0.7" stroke-width="0.552088" stroke-miterlimit="10"/>
<path d="M1349.17 32.9411C1319.28 104.602 1274.62 169.704 1218.63 211.473C1191.91 231.609 1163.35 240.447 1135.71 257.2C1104.15 276.32 1070.46 287.577 1035.89 295.118C1012.23 300.294 988.122 303.663 963.929 306.41C916.238 311.814 868.136 315.007 822.003 315.082C795.03 315.125 768.815 314.445 743.488 313.21C725.174 312.315 706.811 311.274 688.395 309.694C662.078 307.44 635.415 303.662 607.258 303.449C597.387 303.376 587.409 303.787 577.374 304.388C534.729 306.727 489.149 303.852 449.849 312.342C439.623 314.553 429.813 317.486 420.459 321.389C383.775 336.702 349.713 363.629 320.17 398.872C315.102 404.896 310.121 411.21 305.185 417.713C287.579 440.915 270.504 466.542 251.979 490.326C240.948 504.504 229.703 519.421 216.138 527.932C207.709 533.229 198.648 535.595 188.677 534.757C178.815 533.928 169.582 531.035 159.767 528.372C126.106 519.055 85.0317 518.157 54.8806 541.822" stroke="#2EA7E0" stroke-opacity="0.7" stroke-width="0.552088" stroke-miterlimit="10"/>
<path d="M1346.79 34.9636C1318.31 107.228 1274.33 172.795 1218.7 214.386C1191.56 234.875 1162.5 243.437 1134.51 260.791C1102.67 280.54 1068.62 292.511 1033.67 300.58C1009.73 306.116 985.32 309.752 960.809 312.589C912.495 318.177 863.69 320.863 816.813 319.744C789.408 319.091 762.744 317.483 736.957 315.166C718.279 313.489 699.58 311.566 680.847 309.096C654.057 305.562 626.958 300.468 598.32 299.478C588.293 299.132 578.158 299.338 567.969 299.808C524.611 301.602 478.518 300.206 438.835 310.506C428.526 313.184 418.642 316.597 409.208 320.975C372.317 338.094 338.336 366.877 309.017 403.759C303.989 410.066 299.051 416.652 294.153 423.421C276.685 447.582 259.72 474.063 241.087 498.348C229.988 512.827 218.58 527.822 204.826 536.557C196.275 541.994 187.093 544.543 177.05 544.036C167.04 543.529 157.597 541.012 147.591 538.645C113.299 530.351 71.9097 529.289 41.0885 552.697" stroke="#2EA7E0" stroke-opacity="0.7" stroke-width="0.552088" stroke-miterlimit="10"/>
<path d="M1344.42 36.9895C1317.34 109.854 1274.06 175.885 1218.76 217.299C1191.2 238.144 1161.65 246.422 1133.32 264.378C1101.18 284.755 1066.79 297.444 1031.44 306.033C1007.23 311.925 982.523 315.832 957.693 318.764C908.754 324.536 859.248 326.71 811.631 324.401C783.79 323.049 756.683 320.512 730.433 317.117C711.39 314.653 692.354 311.858 673.309 308.491C646.043 303.675 618.511 297.273 589.389 295.506C579.204 294.887 568.913 294.887 558.57 295.228C514.499 296.476 467.892 296.559 427.823 308.67C417.433 311.81 407.47 315.709 397.959 320.56C360.861 339.478 326.962 370.123 297.869 408.642C292.88 415.226 287.983 422.09 283.126 429.129C265.796 454.248 248.939 481.588 230.202 506.364C219.036 521.145 207.463 536.222 193.521 545.175C184.848 550.753 175.55 553.49 165.428 553.309C155.271 553.129 145.618 550.989 135.421 548.917C100.494 541.642 58.7957 540.416 27.3047 563.572" stroke="#2EA7E0" stroke-opacity="0.7" stroke-width="0.552088" stroke-miterlimit="10"/>
<path d="M1342.03 39.0114C1316.37 112.475 1273.77 178.971 1218.83 220.208C1190.84 241.405 1160.79 249.405 1132.13 267.965C1099.69 288.971 1064.95 302.377 1029.21 311.486C1004.72 317.739 979.717 321.913 954.566 324.936C905.005 330.891 854.796 332.559 806.435 329.051C778.161 327.004 750.604 323.534 723.895 319.062C704.489 315.811 685.112 312.139 665.755 307.885C638.016 301.789 610.047 294.076 580.443 291.527C570.103 290.635 559.653 290.431 549.158 290.641C504.377 291.343 457.254 292.906 416.8 306.831C406.326 310.437 396.289 314.817 386.698 320.142C349.39 340.86 315.574 373.367 286.707 413.526C281.76 420.392 276.902 427.534 272.085 434.838C254.894 460.919 238.144 489.11 219.301 514.386C208.068 529.469 196.332 544.626 182.201 553.803C173.406 559.522 163.988 562.447 153.793 562.592C143.485 562.738 133.625 560.971 123.238 559.197C87.6795 552.946 45.6661 551.556 13.5045 574.451" stroke="#2EA7E0" stroke-opacity="0.7" stroke-width="0.552088" stroke-miterlimit="10"/>
<path d="M1339.66 41.0329C1315.41 115.1 1273.49 182.061 1218.89 223.116C1190.48 244.67 1159.93 252.386 1130.94 271.548C1098.21 293.182 1063.12 307.306 1026.98 316.935C1002.22 323.544 976.919 327.989 951.45 331.106C901.264 337.245 850.354 338.401 801.253 333.704C772.544 330.957 744.543 326.559 717.371 321.009C697.601 316.971 677.889 312.422 658.215 307.277C630.002 299.897 601.597 290.878 571.509 287.547C561.011 286.386 550.407 285.972 539.755 286.052C494.261 286.209 446.622 289.247 405.785 304.988C395.229 309.055 385.115 313.921 375.45 319.722C337.929 342.24 304.2 376.609 275.557 418.405C270.648 425.548 265.835 432.968 261.052 440.542C243.997 467.582 227.359 496.626 208.408 522.403C197.111 537.787 185.207 553.022 170.888 562.423C161.971 568.281 152.435 571.398 142.165 571.862C131.711 572.337 121.639 570.943 111.061 569.461C74.8689 564.233 32.5462 562.678 -0.285508 585.317" stroke="#2EA7E0" stroke-opacity="0.7" stroke-width="0.552088" stroke-miterlimit="10"/>
<path d="M1337.28 43.059C1314.44 117.726 1273.21 185.151 1218.96 226.033C1190.12 247.939 1159.08 255.372 1129.74 275.143C1096.72 297.402 1061.29 312.247 1024.75 322.4C999.713 329.369 974.115 334.081 948.327 337.289C897.518 343.612 845.905 344.257 796.06 338.37C766.919 334.928 738.472 329.593 710.835 322.969C690.702 318.144 670.652 312.719 650.664 306.682C621.981 298.019 593.135 287.693 562.565 283.581C551.912 282.147 541.148 281.528 530.345 281.478C484.141 281.088 435.982 285.598 394.762 303.157C384.123 307.691 373.929 313.038 364.19 319.312C326.455 343.622 292.815 379.861 264.396 423.297C259.526 430.722 254.754 438.415 250.013 446.259C233.095 474.257 216.564 504.156 197.508 530.429C186.143 546.114 174.076 561.431 159.567 571.051C150.531 577.046 140.876 580.359 130.527 581.145C119.929 581.95 109.643 580.925 98.8778 579.742C62.0514 575.538 19.4167 573.818 -14.0856 596.197" stroke="#2EA7E0" stroke-opacity="0.7" stroke-width="0.552088" stroke-miterlimit="10"/>
<path d="M1334.9 45.0808C1313.47 120.347 1272.93 188.241 1219.02 228.942C1189.77 251.204 1158.22 258.354 1128.55 278.726C1095.23 301.609 1059.46 317.175 1022.52 327.849C997.209 335.173 971.314 340.153 945.206 343.46C893.772 349.967 841.461 350.104 790.873 343.019C761.295 338.877 732.404 332.61 704.305 324.912C683.809 319.297 663.419 312.999 643.118 306.075C613.962 296.128 584.68 284.499 553.627 279.601C542.817 277.899 531.896 277.075 520.94 276.894C474.023 275.959 425.346 281.937 383.747 301.317C373.024 306.313 362.754 312.141 352.938 318.894C314.987 344.995 281.438 383.104 253.245 428.179C248.417 435.882 243.684 443.853 238.983 451.967C222.204 480.923 205.78 511.676 186.618 538.45C175.186 554.436 162.954 569.834 148.257 579.673C139.1 585.809 129.329 589.317 118.903 590.422C108.158 591.561 97.6614 590.905 86.7049 590.013C49.2471 586.832 6.29719 584.945 -27.8721 607.07" stroke="#2EA7E0" stroke-opacity="0.7" stroke-width="0.552088" stroke-miterlimit="10"/>
<path d="M1332.52 47.1029C1312.51 122.972 1272.66 191.326 1219.09 231.85C1189.41 254.465 1157.33 261.248 1127.36 282.309C1093.7 305.725 1057.62 322.1 1020.29 333.298C994.707 340.982 968.515 346.229 942.088 349.626C890.032 356.317 837.017 355.944 785.686 347.668C755.676 342.831 726.34 335.627 697.777 326.856C676.918 320.45 656.19 313.279 635.575 305.463C605.948 294.234 576.223 281.386 544.691 275.619C533.722 273.671 522.648 272.614 511.538 272.303C463.91 270.822 414.71 278.272 372.733 299.474C361.926 304.932 351.58 311.246 341.687 318.471C303.519 346.365 270.059 386.343 242.092 433.054C237.303 441.035 232.614 449.287 227.948 457.668C211.307 487.582 194.994 519.193 175.722 546.463C164.224 562.75 151.829 578.226 136.942 588.289C127.663 594.565 117.776 598.268 107.273 599.691C96.3821 601.165 85.6739 600.878 74.5267 600.281C36.4347 598.123 -6.82443 596.071 -41.6667 617.941" stroke="#2EA7E0" stroke-opacity="0.7" stroke-width="0.552088" stroke-miterlimit="10"/>
<path d="M1330.14 49.1291C1311.54 125.598 1272.38 194.416 1219.16 234.763C1189.05 257.733 1156.48 264.241 1126.17 285.899C1092.22 309.948 1055.79 327.036 1018.07 338.754C992.205 346.795 965.717 352.312 938.969 355.804C886.287 362.679 832.572 361.799 780.5 352.329C750.055 346.793 720.278 338.656 691.249 328.811C670.028 321.615 648.971 313.518 628.031 304.864C597.945 292.278 567.765 278.189 535.755 271.648C524.631 269.427 513.398 268.165 502.133 267.724C453.792 265.698 404.072 274.616 361.716 297.64C350.825 303.56 340.4 310.355 330.436 318.061C292.048 347.743 258.683 389.594 230.94 437.945C226.19 446.208 221.542 454.733 216.917 463.383C200.415 494.256 184.208 526.721 164.831 554.487C153.265 571.076 140.708 586.633 125.631 596.915C116.229 603.332 106.227 607.231 95.6441 608.969C84.6097 610.78 73.6866 610.854 62.3491 610.556C23.6258 609.422 -19.9486 607.202 -55.4611 628.815" stroke="#2EA7E0" stroke-opacity="0.7" stroke-width="0.552088" stroke-miterlimit="10"/>
<path d="M1327.76 51.1505C1310.57 128.219 1272.1 197.505 1219.23 237.674C1188.7 260.997 1155.63 267.23 1124.98 289.485C1090.74 314.17 1053.96 331.968 1015.84 344.21C989.709 352.61 962.919 358.395 935.853 361.978C882.545 369.037 828.129 367.645 775.314 356.986C744.436 350.754 714.215 341.676 684.719 330.763C663.137 322.775 641.741 313.81 620.484 304.265C589.925 290.4 559.308 274.996 526.814 267.678C515.532 265.184 504.142 263.716 492.726 263.145C443.675 260.573 393.429 270.955 350.696 295.805C339.721 302.187 329.217 309.464 319.18 317.647C280.569 349.117 247.302 392.841 219.782 442.829C215.073 451.369 210.464 460.172 205.88 469.092C189.516 500.922 173.416 534.242 153.936 562.508C142.303 579.398 129.58 595.036 114.316 605.538C104.793 612.095 94.675 616.193 84.0151 618.245C72.8379 620.398 61.6999 620.834 50.1713 620.827C10.8137 620.716 -33.0699 618.332 -69.2526 639.688" stroke="#2EA7E0" stroke-opacity="0.7" stroke-width="0.552088" stroke-miterlimit="10"/>
<path d="M1325.38 53.1724C1309.61 130.844 1271.82 200.591 1219.29 240.583C1188.34 264.262 1154.77 270.215 1123.79 293.071C1089.25 318.388 1052.13 336.9 1013.61 349.662C987.204 358.422 960.117 364.475 932.733 368.152C878.803 375.394 823.683 373.492 770.127 361.639C738.814 354.708 708.151 344.697 678.19 332.71C656.246 323.932 634.513 314.102 612.941 303.658C581.913 288.517 550.853 271.795 517.88 263.703C506.443 260.936 494.894 259.263 483.324 258.562C433.56 255.444 382.79 267.295 339.685 293.965C328.623 300.81 318.042 308.568 307.931 317.228C269.097 350.483 235.928 396.083 208.632 447.711C203.962 456.533 199.398 465.609 194.851 474.799C178.626 507.591 162.636 541.761 143.047 570.528C131.347 587.719 118.461 603.435 103.007 614.16C93.3646 620.853 83.1319 625.159 72.3915 627.522C61.071 630.012 49.7181 630.809 37.9993 631.102C-1.99241 632.014 -46.1881 629.465 -83.0414 650.562" stroke="#2EA7E0" stroke-opacity="0.7" stroke-width="0.552088" stroke-miterlimit="10"/>
<path d="M1323 55.1986C1308.64 133.469 1271.54 203.685 1219.36 243.495C1187.98 267.527 1153.92 273.205 1122.6 296.658C1087.77 322.607 1050.29 341.832 1011.38 355.115C984.699 364.231 957.316 370.555 929.611 374.327C875.055 381.749 819.235 379.344 764.935 366.297C733.19 358.67 702.095 347.654 671.657 334.666C649.362 325.049 627.28 314.399 605.391 303.059C573.89 286.644 542.393 268.599 508.936 259.733C497.341 256.694 485.638 254.816 473.914 253.984C423.439 250.321 372.1 263.525 328.663 292.136C317.505 299.412 306.857 307.682 296.672 316.819C257.613 351.863 224.541 399.336 197.474 452.599C192.843 461.698 188.32 471.056 183.811 480.512C167.724 514.263 151.841 549.286 132.147 578.549C120.379 596.038 107.328 611.839 91.6868 622.783C81.9225 629.617 71.5773 634.122 60.754 636.8C49.2939 639.636 37.7229 640.79 25.8134 641.378C-14.8097 643.313 -59.3179 640.596 -96.841 661.44" stroke="#2EA7E0" stroke-opacity="0.7" stroke-width="0.552088" stroke-miterlimit="10"/>
<path d="M1320.63 57.2205C1307.67 136.091 1271.26 206.771 1219.42 246.404C1187.63 270.792 1153.07 276.194 1121.41 300.245C1086.28 326.826 1048.46 346.761 1009.16 360.568C982.197 370.044 954.517 376.634 926.491 380.497C871.312 388.103 814.789 385.187 759.746 370.95C727.567 362.624 696.03 350.687 665.126 336.614C642.468 326.214 620.048 314.687 597.846 302.457C565.876 284.766 533.935 265.403 499.997 255.76C488.246 252.444 476.384 250.364 464.509 249.402C413.321 245.193 361.464 259.885 317.645 290.297C306.404 298.044 295.663 306.761 285.421 316.401C246.075 353.118 213.165 402.579 186.321 457.482C181.733 466.863 177.248 476.495 172.779 486.216C156.831 520.925 141.058 556.807 121.255 586.566C109.419 604.356 96.2065 620.239 80.3746 631.402C70.4886 638.376 60.0312 643.085 49.127 646.069C37.5269 649.246 25.7377 650.759 13.6404 651.641C-27.6169 654.6 -72.4371 651.718 -110.63 672.306" stroke="#2EA7E0" stroke-opacity="0.7" stroke-width="0.552088" stroke-miterlimit="10"/>
<path d="M1318.25 59.2428C1306.71 138.716 1270.98 209.857 1219.49 249.313C1187.27 274.053 1152.22 279.18 1120.22 303.828C1084.79 331.045 1046.63 351.69 1006.93 366.017C979.694 375.849 951.712 382.707 923.371 386.668C867.567 394.458 810.342 391.03 754.559 375.599C721.945 366.578 689.965 353.717 658.597 338.558C635.578 327.379 612.817 314.976 590.3 301.847C557.857 282.88 525.479 262.198 491.06 251.778C479.151 248.189 467.132 245.904 455.103 244.812C403.205 240.058 350.827 256.241 306.627 288.452C295.302 296.664 284.482 305.867 274.166 315.98C234.609 354.519 201.785 405.815 175.165 462.358C170.615 472.016 166.175 481.925 161.744 491.917C145.933 527.584 130.268 564.32 110.359 594.579C98.4566 612.67 85.0781 628.631 69.0591 640.017C59.0513 647.132 48.4846 652.043 37.497 655.339C25.7575 658.861 13.7501 660.731 1.46208 661.909C-40.427 665.886 -85.5588 662.845 -124.423 683.172" stroke="#2EA7E0" stroke-opacity="0.7" stroke-width="0.552088" stroke-miterlimit="10"/>
<path d="M1315.87 61.2681C1305.74 141.341 1270.71 212.95 1219.56 252.229C1186.91 277.325 1151.36 282.173 1119.03 307.418C1083.31 335.268 1044.8 356.626 1004.7 371.477C977.193 381.669 948.914 388.794 920.252 392.846C863.825 400.819 805.9 396.885 749.37 380.26C716.323 370.54 683.898 356.758 652.064 340.514C628.683 328.553 605.584 315.273 582.75 301.248C549.837 281.007 517.016 259.002 482.116 247.808C470.051 243.947 457.877 241.46 445.693 240.235C393.082 234.934 340.186 252.609 295.605 286.622C284.197 295.305 273.301 304.992 262.907 315.571C223.137 355.933 190.4 409.066 164.004 467.249C159.493 477.186 155.095 487.372 150.704 497.633C135.032 534.258 119.474 571.848 99.459 602.604C87.4893 620.997 73.9483 637.038 57.739 648.644C47.6094 655.9 36.9395 661.044 25.8596 664.621C13.9867 668.519 1.75458 670.712 -10.7237 672.189C-53.2469 677.19 -98.6908 673.983 -138.225 694.054" stroke="#2EA7E0" stroke-opacity="0.7" stroke-width="0.552088" stroke-miterlimit="10"/>
<path d="M1313.49 63.2905C1304.78 143.963 1270.43 216.036 1219.62 255.138C1186.55 280.586 1150.51 285.158 1117.84 311.005C1081.83 339.487 1042.96 361.558 1002.47 376.93C920 408.242 830.549 411.782 744.184 384.914C686.089 366.84 629.851 335.859 575.208 300.642C541.822 279.125 508.563 255.802 473.182 243.831C408.137 221.823 339.959 240.687 284.593 284.779C229.226 328.872 185.879 396.64 152.857 472.128C122.888 540.629 97.9206 620.124 46.4327 657.263C-12.4528 699.735 -89.041 673.884 -152.009 704.92" stroke="#2EA7E0" stroke-opacity="0.7" stroke-width="0.552088" stroke-miterlimit="10"/>
<path d="M1236.64 575.494C1226.52 475.881 1190.41 379.158 1136.54 307.365C1121.22 286.94 1103.78 267.951 1083.59 260.471C1025.24 238.864 972.715 305.871 929.918 345.342C878.27 392.971 827.473 442.521 772.807 483.93C742.118 507.179 705.377 528.084 671.148 508.77C636.486 489.209 618.409 436.786 600.028 391.423C578.611 338.564 551.571 288.349 515.993 252.498C480.415 216.647 435.395 196.492 394.177 207.489C361.9 216.101 334.511 242.555 310.006 271.373C245.621 347.096 194.419 443.606 161.093 552.057" stroke="#2EA7E0" stroke-opacity="0.7" stroke-width="0.552088" stroke-miterlimit="10"/>
<path d="M1237.96 570.998C1229.01 482.958 1197.42 399.3 1149.95 329.786C1145.55 323.33 1141.04 316.999 1136.4 310.871C1121.13 290.742 1103.85 272.001 1083.92 264.417C1026.27 242.449 974.31 306.194 931.444 344.426C893.44 378.322 855.905 413.827 816.597 446.551C802.965 457.943 789.166 468.989 775.12 479.521C744.652 502.364 708.345 522.995 674.468 504.718C640.167 486.21 621.919 435.91 603.371 392.42C581.755 341.747 554.693 293.599 519.339 259.256C507.03 247.299 493.609 237.173 479.616 229.505C453.432 215.146 425.241 209.383 398.605 216.335C366.611 224.687 339.338 250.178 314.88 277.8C265.36 333.685 223.538 400.897 191.262 476.576C181.629 499.157 172.848 522.487 164.976 546.5" stroke="#2EA7E0" stroke-opacity="0.7" stroke-width="0.552088" stroke-miterlimit="10"/>
<path d="M1239.28 566.508C1230.63 481.401 1198.37 402.641 1149.76 332.985C1145.35 326.664 1140.88 320.418 1136.25 314.386C1121.03 294.557 1103.92 276.06 1084.25 268.368C1027.3 246.037 975.907 306.522 932.969 343.518C895.25 376.017 857.984 410.662 818.635 442.791C805.085 453.941 791.375 464.774 777.432 475.12C747.186 497.561 711.308 517.916 677.788 500.676C643.847 483.216 625.427 435.039 606.715 393.426C584.904 344.938 557.812 298.858 522.687 266.027C510.455 254.598 497.144 244.924 483.278 237.615C457.341 223.92 429.437 218.458 403.039 225.194C371.328 233.288 344.173 257.814 319.759 284.235C270.305 337.683 228.433 401.461 195.685 473.876C185.912 495.483 176.952 517.852 168.863 540.951" stroke="#2EA7E0" stroke-opacity="0.7" stroke-width="0.552088" stroke-miterlimit="10"/>
<path d="M1240.6 562.013C1232.25 479.84 1199.34 405.976 1149.57 336.18C1145.15 329.987 1140.71 323.828 1136.12 317.897C1120.94 298.363 1103.99 280.119 1084.58 272.318C1028.34 249.626 977.52 306.852 934.499 342.606C897.074 373.71 860.012 407.361 820.681 439.031C807.192 449.896 793.592 460.558 779.748 470.719C749.724 492.755 714.277 512.836 681.115 496.632C647.534 480.221 628.944 434.172 610.065 394.431C588.055 348.129 560.941 304.116 526.042 272.793C513.885 261.891 500.686 252.67 486.948 245.716C461.255 232.686 433.644 227.525 407.477 234.049C376.05 241.885 349.013 265.445 324.642 290.666C275.253 341.68 233.333 402.02 200.113 471.174C190.2 491.809 181.065 513.216 172.76 535.406" stroke="#2EA7E0" stroke-opacity="0.7" stroke-width="0.552088" stroke-miterlimit="10"/>
<path d="M1241.92 557.523C1233.87 478.282 1200.31 409.306 1149.37 339.379C1144.95 333.317 1140.54 327.242 1135.97 321.411C1120.85 302.178 1104.05 284.177 1084.91 276.268C1029.37 253.216 979.131 307.189 936.021 341.698C898.897 371.415 862.07 404.154 822.717 435.271C809.302 445.881 795.8 456.342 782.057 466.317C752.255 487.952 717.241 507.759 684.432 492.589C651.211 477.23 632.45 433.304 613.404 395.436C591.195 351.32 564.057 309.371 529.384 279.559C517.304 269.181 504.217 260.416 490.604 253.818C465.158 241.455 437.837 236.596 411.901 242.9C380.754 250.475 353.835 273.072 329.511 297.093C280.189 345.669 238.218 402.575 204.524 468.466C194.468 488.127 185.157 508.572 176.635 529.849" stroke="#2EA7E0" stroke-opacity="0.7" stroke-width="0.552088" stroke-miterlimit="10"/>
<path d="M1243.23 553.029C1235.48 476.722 1201.3 412.628 1149.17 342.575C1144.75 336.64 1140.37 330.657 1135.83 324.922C1120.76 305.985 1104.12 288.233 1085.24 280.218C1030.4 256.807 980.755 307.529 937.546 340.791C900.73 369.131 864.137 400.951 824.758 431.515C811.419 441.871 798.012 452.131 784.372 461.92C754.791 483.149 720.208 502.683 687.755 488.55C654.894 474.24 635.964 432.441 616.749 396.446C594.344 354.512 567.18 314.634 532.732 286.334C520.73 276.484 507.753 268.171 494.267 261.928C469.067 250.229 442.034 245.672 416.334 251.763C385.472 259.08 358.671 280.715 334.391 303.536C285.135 349.678 243.114 403.147 208.948 465.777C198.752 484.464 189.262 503.948 180.525 524.312" stroke="#2EA7E0" stroke-opacity="0.7" stroke-width="0.552088" stroke-miterlimit="10"/>
<path d="M1244.55 548.535C1237.1 475.161 1202.31 415.935 1148.98 345.766C1144.56 339.958 1140.2 334.063 1135.68 328.429C1120.67 309.791 1104.19 292.283 1085.57 284.16C1031.44 260.388 982.389 307.863 939.073 339.87C902.573 366.841 866.203 397.735 826.798 427.743C813.534 437.844 800.223 447.903 786.684 457.503C757.326 478.33 723.175 497.586 691.075 484.491C658.575 471.229 639.474 431.557 620.091 397.435C597.488 357.687 570.301 319.876 536.077 293.084C524.153 283.761 511.288 275.901 497.927 270.017C472.971 258.982 446.231 254.727 420.762 260.602C390.183 267.662 363.497 288.331 339.265 309.95C290.076 353.655 248.004 403.689 213.366 463.055C203.027 480.77 193.362 499.292 184.41 518.742" stroke="#2EA7E0" stroke-opacity="0.7" stroke-width="0.552088" stroke-miterlimit="10"/>
<path d="M1245.87 544.046C1238.72 473.604 1203.33 419.243 1148.78 348.966C1144.36 343.28 1140.03 337.478 1135.54 331.944C1120.58 313.602 1104.25 296.342 1085.9 288.114C1032.47 263.978 984.026 308.221 940.599 338.965C904.422 364.574 868.274 394.539 828.838 423.99C815.649 433.841 802.432 443.692 788.997 453.109C759.86 473.531 726.14 492.514 694.396 480.455C662.255 468.246 642.983 430.693 623.437 398.447C600.638 360.885 573.425 325.142 539.429 299.862C527.582 291.062 514.827 283.658 501.593 278.13C476.884 267.759 450.434 263.809 425.197 269.468C394.901 276.266 368.333 295.973 344.141 316.393C295.019 357.663 252.897 404.259 217.785 460.365C207.306 477.106 197.462 494.668 188.294 513.204" stroke="#2EA7E0" stroke-opacity="0.7" stroke-width="0.552088" stroke-miterlimit="10"/>
<path d="M1247.19 539.552C1240.34 472.044 1204.36 422.532 1148.58 352.161C1144.17 346.598 1139.87 340.892 1135.4 335.454C1120.49 317.412 1104.32 300.4 1086.23 292.064C1033.5 267.567 985.679 308.577 942.126 338.052C906.283 362.309 870.344 391.334 830.881 420.225C817.771 429.821 804.646 439.471 791.311 448.703C762.397 468.723 729.108 487.428 697.718 476.411C665.938 465.25 646.495 429.825 626.781 399.452C603.783 364.075 576.545 330.399 542.776 306.627C531.006 298.355 518.363 291.403 505.254 286.231C480.793 276.527 454.633 272.875 429.626 278.321C399.614 284.862 373.164 303.603 349.017 322.826C299.962 361.659 257.789 404.821 222.205 457.662C211.584 473.43 201.563 490.026 192.18 507.656" stroke="#2EA7E0" stroke-opacity="0.7" stroke-width="0.552088" stroke-miterlimit="10"/>
<path d="M1248.51 535.059C1241.95 470.484 1205.4 425.809 1148.39 355.357C1143.98 349.916 1139.7 344.303 1135.26 338.965C1120.39 321.218 1104.39 304.455 1086.56 296.009C1034.54 271.152 987.337 308.939 943.654 337.138C908.152 360.056 872.418 388.137 832.923 416.463C819.889 425.813 806.859 435.254 793.626 444.3C764.933 463.915 732.075 482.347 701.041 472.367C669.621 462.255 650.007 428.957 630.126 400.456C606.93 367.265 579.668 335.657 546.124 313.396C534.432 305.652 521.898 299.153 508.917 294.335C484.699 285.296 458.83 281.949 434.059 287.175C404.33 293.454 377.996 311.233 353.895 329.256C304.907 365.654 262.684 405.378 226.629 454.959C215.867 469.753 205.668 485.388 196.071 502.104" stroke="#2EA7E0" stroke-opacity="0.7" stroke-width="0.552088" stroke-miterlimit="10"/>
<path d="M1249.83 530.571C1243.57 468.928 1206.46 429.082 1148.19 358.553C1143.79 353.23 1139.53 347.713 1135.11 342.473C1120.3 325.025 1104.45 308.506 1086.89 299.956C1035.57 274.738 989.001 309.309 945.176 336.221C910.02 357.81 874.489 384.935 834.958 412.695C822.002 421.794 809.064 431.03 795.934 439.89C767.463 459.104 735.038 477.258 704.356 468.316C673.296 459.252 653.512 428.081 633.464 401.453C610.072 370.448 582.784 340.907 549.465 320.155C537.85 312.934 525.426 306.887 512.571 302.429C488.6 294.053 463.021 291.008 438.482 296.022C409.034 302.044 382.821 318.857 358.764 335.679C309.843 369.639 267.569 405.924 231.04 452.245C220.138 466.065 209.76 480.739 199.947 496.542" stroke="#2EA7E0" stroke-opacity="0.7" stroke-width="0.552088" stroke-miterlimit="10"/>
<path d="M1251.15 526.078C1245.19 467.368 1207.53 432.333 1147.99 361.748C1143.6 356.543 1139.36 351.128 1134.97 345.983C1120.21 328.831 1104.52 312.56 1087.22 303.9C1036.61 278.321 990.679 309.692 946.704 335.306C911.905 355.577 876.566 381.736 837.003 408.932C824.126 417.784 811.279 426.812 798.252 435.486C770.003 454.295 738.008 472.179 707.685 464.27C676.985 456.259 657.032 427.207 636.815 402.46C613.223 373.637 585.914 346.167 552.821 326.923C541.284 320.229 528.972 314.635 516.243 310.536C492.518 302.824 467.229 300.08 442.921 304.878C413.756 310.642 387.658 326.489 363.649 342.115C314.795 373.64 272.47 406.487 235.47 449.543C224.426 462.39 213.872 476.102 203.845 490.991" stroke="#2EA7E0" stroke-opacity="0.7" stroke-width="0.552088" stroke-miterlimit="10"/>
<path d="M1252.46 521.591C1246.8 465.814 1208.61 435.572 1147.8 364.948C1143.42 359.861 1139.2 354.53 1134.83 349.499C1120.14 332.608 1104.59 316.622 1087.55 307.854C1037.64 281.91 992.361 310.091 948.234 334.399C913.796 353.367 878.645 378.553 839.045 405.173C826.247 413.779 813.495 422.594 800.564 431.083C772.537 449.49 740.975 467.098 711.005 460.226C680.665 453.263 660.541 426.339 640.159 403.464C616.369 376.827 589.036 351.425 556.169 333.692C544.709 327.526 532.507 322.384 519.905 318.641C496.425 311.597 471.426 309.155 447.354 313.736C418.473 319.238 392.493 334.123 368.527 348.548C319.74 377.635 277.366 407.047 239.895 446.842C228.71 458.716 217.978 471.466 207.735 485.446" stroke="#2EA7E0" stroke-opacity="0.7" stroke-width="0.552088" stroke-miterlimit="10"/>
<path d="M1253.79 517.099C1248.42 464.254 1209.7 438.789 1147.6 368.144C1143.23 363.171 1139.03 357.944 1134.68 353.009C1120.05 336.413 1104.66 320.676 1087.88 311.799C1038.67 285.493 994.053 310.5 949.759 333.479C915.692 351.155 880.72 375.357 841.087 401.406C828.371 409.764 815.707 418.371 802.879 426.674C775.074 444.676 743.942 462.01 714.328 456.176C684.348 450.262 664.053 425.465 643.504 404.463C619.518 380.011 592.159 356.677 559.517 340.452C548.131 334.811 536.043 330.124 523.563 326.737C500.33 320.357 475.621 318.216 451.781 322.581C423.183 327.826 397.321 341.744 373.399 354.969C324.679 381.621 282.255 407.595 244.309 444.125C232.982 455.025 222.074 466.813 211.615 479.88" stroke="#2EA7E0" stroke-opacity="0.7" stroke-width="0.552088" stroke-miterlimit="10"/>
<path d="M1255.1 512.607C1250.04 462.696 1210.8 441.99 1147.41 371.339C1143.05 366.48 1138.86 361.355 1134.54 356.52C1119.96 340.219 1104.72 324.729 1088.21 315.747C1039.71 289.08 995.752 310.922 951.285 332.566C917.594 348.966 882.802 372.171 843.127 397.641C830.489 405.753 817.917 414.151 805.192 422.268C777.609 439.87 746.909 456.927 717.648 452.129C688.028 447.268 667.562 424.595 646.846 405.466C622.661 383.2 595.277 361.934 562.861 347.22C551.553 342.106 539.575 337.873 527.222 334.84C504.236 329.124 479.817 327.285 456.208 331.438C427.893 336.425 402.147 349.377 378.27 361.405C329.617 385.619 287.142 408.157 248.726 441.426C237.259 451.352 226.172 462.179 215.5 474.332" stroke="#2EA7E0" stroke-opacity="0.7" stroke-width="0.552088" stroke-miterlimit="10"/>
<path d="M1256.42 508.12C1251.66 461.141 1211.92 445.175 1147.21 374.535C1142.86 369.789 1138.7 364.765 1134.4 360.03C1119.87 344.024 1104.79 328.783 1088.54 319.691C1040.74 292.662 997.465 311.358 952.814 331.644C919.505 346.778 884.885 368.98 845.169 393.872C832.611 401.741 820.13 409.927 807.508 417.858C780.146 435.054 749.876 451.838 720.971 448.079C691.711 444.266 671.073 423.716 650.191 406.464C625.81 386.384 598.399 367.186 566.212 353.98C554.981 349.394 543.115 345.612 530.887 342.94C508.144 337.887 484.016 336.354 460.644 340.29C432.612 345.015 406.984 357.005 383.151 367.832C334.565 389.611 292.041 408.71 253.153 438.713C241.543 447.662 230.28 457.527 219.393 468.77" stroke="#2EA7E0" stroke-opacity="0.7" stroke-width="0.552088" stroke-miterlimit="10"/>
<path d="M1257.74 503.629C1253.27 459.583 1213.05 448.336 1147.01 377.731C1142.68 373.095 1138.53 368.176 1134.25 363.541C1119.78 347.835 1104.85 332.881 1088.87 323.639C1041.74 296.375 999.178 311.817 954.338 330.73C921.417 344.618 886.965 365.8 847.209 390.106C834.733 397.731 822.341 405.705 809.821 413.451C782.681 430.246 752.844 446.753 724.291 444.031C695.389 441.268 674.583 422.845 653.536 407.466C628.957 389.572 601.522 372.441 569.559 360.748C558.406 356.685 546.65 353.36 534.549 351.043C512.053 346.658 488.215 345.422 465.073 349.142C437.323 353.61 411.813 364.634 388.027 374.26C339.508 393.599 296.934 409.262 257.573 436.004C245.823 443.979 234.382 452.883 223.278 463.216" stroke="#2EA7E0" stroke-opacity="0.7" stroke-width="0.552088" stroke-miterlimit="10"/>
<path d="M1259.06 499.143C1254.89 458.03 1214.19 451.48 1146.82 380.931C1142.5 376.404 1138.36 371.595 1134.12 367.056C1119.69 351.643 1104.92 336.938 1089.21 327.59C1042.78 299.959 1000.9 312.294 955.874 329.817C923.348 342.473 889.059 362.626 849.259 386.345C836.866 393.731 824.561 401.49 812.141 409.05C785.223 425.44 755.816 441.674 727.62 439.994C699.077 438.283 678.103 421.984 656.886 408.478C632.107 392.771 604.65 377.708 572.911 367.523C561.835 363.988 550.189 361.115 538.215 359.153C515.966 355.433 492.418 354.502 469.507 358.006C442.04 362.212 416.649 372.277 392.907 380.702C344.456 397.606 301.829 409.829 262 433.305C250.107 440.306 238.493 448.247 227.174 457.667" stroke="#2EA7E0" stroke-opacity="0.7" stroke-width="0.552088" stroke-miterlimit="10"/>
<path d="M1260.38 494.653C1256.51 456.469 1215.34 454.601 1146.62 384.127C1142.31 379.71 1138.19 375.005 1133.97 370.567C1119.6 355.453 1104.98 340.991 1089.53 331.534C1043.81 303.539 1002.63 312.789 957.395 328.892C925.268 340.332 891.137 359.443 851.296 382.568C838.985 389.715 826.768 397.254 814.451 404.633C787.755 420.622 758.781 436.583 730.937 435.937C702.754 435.276 681.609 421.104 660.225 409.471C635.25 395.947 607.767 382.951 576.253 374.279C565.254 371.271 553.719 368.851 541.87 367.245C519.865 364.189 496.607 363.56 473.93 366.847C446.747 370.795 421.474 379.894 397.776 387.118C349.392 401.582 306.715 410.364 266.416 430.581C254.384 436.608 242.591 443.587 231.056 452.093" stroke="#2EA7E0" stroke-opacity="0.7" stroke-width="0.552088" stroke-miterlimit="10"/>
<path d="M1261.7 490.162C1258.13 454.911 1216.5 457.692 1146.43 387.319C1142.13 383.007 1138.03 378.416 1133.83 374.073C1119.51 359.254 1105.05 345.039 1089.87 335.476C1044.85 307.114 1004.37 313.301 958.927 327.968C927.201 338.208 893.231 356.269 853.342 378.797C841.114 385.705 828.985 393.028 816.77 400.217C790.295 415.801 761.751 431.49 734.263 431.881C706.44 432.269 685.123 420.222 663.571 410.467C638.398 399.129 610.891 388.202 579.605 381.042C568.683 378.558 557.258 376.595 545.537 375.348C523.778 372.956 500.81 372.629 478.367 375.703C451.467 379.394 426.31 387.526 402.659 393.548C354.343 405.576 311.616 410.916 270.844 427.866C258.671 432.919 246.701 438.937 234.949 446.528" stroke="#2EA7E0" stroke-opacity="0.7" stroke-width="0.552088" stroke-miterlimit="10"/>
<path d="M1263.02 485.671C1259.74 453.356 1217.67 460.762 1146.23 390.523C1141.95 386.317 1137.85 381.835 1133.68 377.593C1119.41 363.074 1105.11 349.103 1090.19 339.431C1045.88 310.704 1006.1 313.855 960.449 327.054C929.129 336.109 895.314 353.104 855.377 375.029C843.231 381.698 831.193 388.804 819.078 395.808C792.825 410.991 764.711 426.402 737.58 427.831C710.117 429.273 688.628 419.352 666.909 411.471C641.536 402.322 614.003 393.465 582.943 387.814C572.098 385.858 560.785 384.348 549.188 383.457C527.677 381.733 504.998 381.708 482.786 384.562C456.169 387.991 431.13 395.16 407.524 399.985C359.274 409.572 316.498 411.474 275.255 425.156C262.94 429.235 250.794 434.289 238.829 440.966" stroke="#2EA7E0" stroke-opacity="0.7" stroke-width="0.552088" stroke-miterlimit="10"/>
<path d="M1264.33 481.175C1261.36 451.796 1218.85 463.804 1146.03 393.725C1141.76 389.619 1137.68 385.252 1133.54 381.11C1119.31 366.891 1105.19 353.126 1090.52 343.387C1046.94 314.18 1007.83 314.437 961.968 326.145C931.055 334.034 897.398 349.947 857.412 371.269C845.35 377.703 833.399 384.589 821.386 391.406C795.355 406.184 767.674 421.321 740.895 423.79C713.792 426.282 692.131 418.49 670.247 412.484C644.677 405.523 617.117 398.736 586.281 394.599C575.514 393.172 564.31 392.114 552.84 391.579C531.572 390.52 509.186 390.797 487.205 393.439C460.868 396.61 435.947 402.812 412.385 406.435C364.204 413.585 321.378 412.044 279.664 422.462C267.21 425.566 254.884 429.654 242.704 435.424" stroke="#2EA7E0" stroke-opacity="0.7" stroke-width="0.552088" stroke-miterlimit="10"/>
<path d="M1265.65 476.683C1262.98 450.241 1220.05 466.821 1145.83 396.93C1141.58 392.93 1137.51 388.676 1133.39 384.631C1119.22 370.712 1105.25 357.192 1090.85 347.343C1047.97 317.771 1009.58 315.047 963.495 325.236C932.992 331.978 899.49 346.797 859.453 367.505C847.473 373.703 835.609 380.369 823.697 387.001C797.888 401.377 770.636 416.237 744.213 419.744C717.468 423.286 695.636 417.624 673.584 413.494C647.815 408.721 620.23 404.004 589.618 401.377C578.925 400.475 567.836 399.87 556.491 399.694C535.469 399.3 513.37 399.879 491.626 402.309C465.572 405.222 440.769 410.457 417.252 412.877C369.137 417.587 326.262 412.607 284.075 419.756C271.477 421.886 258.977 425.011 246.583 429.866" stroke="#2EA7E0" stroke-opacity="0.7" stroke-width="0.552088" stroke-miterlimit="10"/>
<path d="M1266.97 472.187C1264.59 448.682 1221.25 469.802 1145.63 400.129C1141.4 396.23 1137.34 392.09 1133.25 388.145C1119.12 374.526 1105.32 361.25 1091.17 351.296C1049 321.363 1011.32 315.685 965.015 324.32C934.921 329.932 901.576 343.64 861.487 363.738C849.59 369.7 837.813 376.142 826.004 382.592C800.416 396.562 773.597 411.149 747.526 415.695C721.142 420.291 699.14 416.751 676.917 414.5C650.949 411.917 623.34 409.27 592.955 408.157C582.339 407.782 571.359 407.631 560.142 407.815C539.363 408.086 517.557 408.971 496.043 411.18C470.273 413.832 445.588 418.103 422.114 419.322C374.067 421.594 331.142 413.171 288.485 417.055C275.748 418.209 263.069 420.372 250.46 424.312" stroke="#2EA7E0" stroke-opacity="0.7" stroke-width="0.552088" stroke-miterlimit="10"/>
<path d="M1268.29 467.691C1266.21 447.122 1222.46 472.753 1145.43 403.331C1141.22 399.53 1137.16 395.521 1133.1 391.663C1119.01 378.378 1105.38 365.313 1091.5 355.255C1050.03 324.96 1013.06 316.36 966.537 323.412C936.853 327.909 903.664 340.502 863.524 359.975C851.714 365.705 840.021 371.923 828.314 378.187C802.949 391.755 776.559 406.064 750.843 411.649C724.818 417.296 702.644 415.887 680.254 415.511C654.088 415.112 626.453 414.54 596.292 414.938C585.753 415.092 574.882 415.393 563.791 415.934C543.259 416.874 521.743 418.057 500.46 420.053C474.973 422.447 450.403 425.751 426.977 425.771C378.997 425.602 336.023 413.739 292.895 414.354C280.016 414.534 267.161 415.733 254.336 418.759" stroke="#2EA7E0" stroke-opacity="0.7" stroke-width="0.552088" stroke-miterlimit="10"/>
<path d="M1269.61 463.198C1267.82 445.568 1223.69 475.677 1145.23 406.539C1141.03 402.839 1136.99 398.948 1132.95 395.183C1118.92 382.197 1105.44 369.381 1091.82 359.209C1051.06 328.554 1014.8 317.067 968.059 322.497C938.782 325.899 905.753 337.357 865.56 356.208C853.833 361.706 842.228 367.7 830.623 373.774C805.479 386.937 779.523 400.976 754.159 407.596C728.492 414.294 706.147 415.015 683.589 416.515C657.223 418.305 629.564 419.804 599.626 421.712C589.164 422.39 578.406 423.149 567.439 424.045C547.153 425.65 525.924 427.14 504.874 428.916C479.671 431.052 455.219 433.388 431.837 432.206C383.925 429.599 340.901 414.293 297.3 411.642C284.281 410.847 271.248 411.083 258.21 413.198" stroke="#2EA7E0" stroke-opacity="0.7" stroke-width="0.552088" stroke-miterlimit="10"/>
<path d="M1270.93 458.701C1269.44 444.008 1224.92 478.564 1145.04 409.742C1140.85 406.14 1136.82 402.366 1132.81 398.702C1118.82 386.013 1105.51 373.444 1092.15 363.168C1052.08 332.152 1016.54 317.81 969.58 321.589C940.706 323.913 907.842 334.228 867.597 352.444C855.954 357.715 844.435 363.481 832.93 369.369C808.008 382.13 782.481 395.892 757.473 403.555C732.166 411.303 709.648 414.154 686.925 417.53C660.362 421.51 632.677 425.08 602.962 428.502C592.578 429.709 581.928 430.921 571.089 432.173C551.046 434.444 530.109 436.235 509.294 437.798C484.373 439.673 460.037 441.046 436.702 438.661C388.857 433.612 345.784 414.862 301.712 408.945C288.554 407.175 275.343 406.448 262.088 407.648" stroke="#2EA7E0" stroke-opacity="0.7" stroke-width="0.552088" stroke-miterlimit="10"/>
<path d="M1272.25 454.208C1271.06 442.454 1226.16 481.419 1144.83 412.951C1140.67 409.447 1136.64 405.791 1132.66 402.227C1118.72 389.838 1105.57 377.514 1092.47 367.129C1053.11 335.748 1018.27 318.592 971.103 320.683C942.628 321.945 909.936 331.104 869.634 348.686C858.077 353.729 846.643 359.267 835.24 364.968C810.54 377.323 785.445 390.812 760.79 399.514C735.842 408.317 713.152 413.292 690.261 418.547C663.499 424.716 635.786 430.358 606.298 435.291C595.99 437.026 585.453 438.691 574.735 440.3C554.938 443.235 534.291 445.329 513.706 446.676C489.066 448.293 464.851 448.698 441.56 445.115C393.783 437.628 350.66 415.433 306.118 406.247C292.817 403.501 279.431 401.811 265.96 402.096" stroke="#2EA7E0" stroke-opacity="0.7" stroke-width="0.552088" stroke-miterlimit="10"/>
<path d="M1273.57 449.707C1272.68 440.89 1227.41 484.228 1144.64 416.149C1140.49 412.738 1136.48 409.208 1132.51 405.741C1118.63 393.649 1105.63 381.574 1092.8 371.084C1054.14 339.343 1020 319.406 972.627 319.769C944.547 319.985 912.031 327.979 871.671 344.916C860.198 349.73 848.853 355.036 837.55 360.556C813.072 372.508 788.407 385.719 764.109 395.46C739.52 405.313 716.658 412.419 693.599 419.551C666.637 427.91 638.9 435.622 609.639 442.07C599.408 444.329 588.98 446.452 578.389 448.421C558.839 452.025 538.479 454.422 518.127 455.552C493.77 456.907 469.673 456.348 446.424 451.564C398.714 441.638 355.542 416.001 310.527 403.548C297.086 399.828 283.52 397.171 269.838 396.544" stroke="#2EA7E0" stroke-opacity="0.7" stroke-width="0.552088" stroke-miterlimit="10"/>
<path d="M1274.89 445.197C1274.3 439.32 1228.68 486.99 1144.44 419.347C1140.31 416.03 1136.31 412.623 1132.37 409.256C1118.54 397.465 1105.7 385.641 1093.13 375.04C1055.17 342.942 1021.72 320.262 974.148 318.866C946.456 318.053 914.121 324.874 873.708 341.159C862.322 345.749 851.06 350.823 839.86 356.156C815.603 367.702 791.371 380.638 767.425 391.418C743.196 402.321 720.162 411.557 696.934 420.564C669.775 431.113 642.011 440.896 612.973 448.854C602.819 451.642 592.502 454.218 582.036 456.543C562.729 460.813 542.661 463.511 522.543 464.429C498.469 465.527 474.488 464.001 451.285 458.015C403.642 445.649 360.419 416.575 314.933 400.854C301.349 396.159 287.608 392.54 273.709 391.002" stroke="#2EA7E0" stroke-opacity="0.7" stroke-width="0.552088" stroke-miterlimit="10"/>
<path d="M1276.22 440.69C1275.92 437.752 1229.95 489.712 1144.25 422.548C1140.13 419.324 1136.14 416.044 1132.23 412.774C1118.45 401.281 1105.76 389.707 1093.46 379.003C1056.2 346.548 1023.42 321.164 975.668 317.967C948.354 316.139 916.229 321.846 875.74 337.404C864.443 341.789 853.262 346.61 842.164 351.757C818.129 362.9 794.327 375.558 770.736 387.376C746.866 399.333 723.662 410.695 700.264 421.578C672.905 434.315 645.116 446.169 616.302 455.641C606.225 458.958 596.018 461.986 585.678 464.668C566.617 469.602 546.839 472.603 526.951 473.305C503.16 474.145 479.297 471.656 456.138 464.469C408.561 449.667 365.287 417.153 319.33 398.17C305.607 392.5 291.687 387.919 277.575 385.466" stroke="#2EA7E0" stroke-opacity="0.7" stroke-width="0.552088" stroke-miterlimit="10"/>
<path d="M1277.55 436.18C1277.55 436.18 1231.24 492.394 1144.05 425.743C1056.87 359.093 1020.87 280.811 877.78 333.647C778.9 370.16 689.764 442.891 589.331 472.786C548.01 485.085 503.441 486.316 461.002 470.917C413.491 453.676 370.167 417.727 323.735 395.476C309.869 388.833 295.776 383.289 281.445 379.922" stroke="#2EA7E0" stroke-opacity="0.7" stroke-width="0.552088" stroke-miterlimit="10"/>
</svg>
